<svg width="400" height="300" viewBox="0 0 400 300" fill="none" xmlns="http://www.w3.org/2000/svg">
  <!-- Background -->
  <rect width="400" height="300" fill="#f0f9ff"/>
  
  <!-- Sun -->
  <circle cx="320" cy="60" r="25" fill="#fbbf24"/>
  <path d="M320 20V35M320 85V100M360 60H345M295 60H280M345.71 34.29L335.36 44.64M304.64 75.36L294.29 85.71M345.71 85.71L335.36 75.36M304.64 44.64L294.29 34.29" stroke="#fbbf24" stroke-width="2" stroke-linecap="round"/>
  
  <!-- Hills -->
  <path d="M0 180C50 160 100 170 150 180C200 190 250 170 300 180C350 190 375 185 400 180V300H0V180Z" fill="#22c55e" opacity="0.3"/>
  <path d="M0 200C60 180 120 190 180 200C240 210 300 190 360 200C380 205 390 202 400 200V300H0V200Z" fill="#16a34a" opacity="0.5"/>
  
  <!-- Trees -->
  <ellipse cx="80" cy="160" rx="15" ry="25" fill="#15803d"/>
  <rect x="77" y="170" width="6" height="20" fill="#92400e"/>
  
  <ellipse cx="320" cy="170" rx="18" ry="30" fill="#15803d"/>
  <rect x="316" y="185" width="8" height="25" fill="#92400e"/>
  
  <!-- Farm building -->
  <rect x="150" y="140" width="80" height="50" fill="#dc2626"/>
  <polygon points="150,140 190,110 230,140" fill="#991b1b"/>
  <rect x="170" y="160" width="15" height="30" fill="#92400e"/>
  <rect x="200" y="150" width="12" height="12" fill="#3b82f6"/>
  
  <!-- Crops/Plants -->
  <g transform="translate(50, 200)">
    <path d="M0 20L5 15L10 20M5 15V25" stroke="#16a34a" stroke-width="2" stroke-linecap="round"/>
    <path d="M15 20L20 15L25 20M20 15V25" stroke="#16a34a" stroke-width="2" stroke-linecap="round"/>
    <path d="M30 20L35 15L40 20M35 15V25" stroke="#16a34a" stroke-width="2" stroke-linecap="round"/>
  </g>
  
  <g transform="translate(280, 210)">
    <path d="M0 15L3 10L6 15M3 10V20" stroke="#16a34a" stroke-width="2" stroke-linecap="round"/>
    <path d="M10 15L13 10L16 15M13 10V20" stroke="#16a34a" stroke-width="2" stroke-linecap="round"/>
    <path d="M20 15L23 10L26 15M23 10V20" stroke="#16a34a" stroke-width="2" stroke-linecap="round"/>
  </g>
  
  <!-- Tractor -->
  <g transform="translate(200, 200)">
    <rect x="0" y="10" width="30" height="15" fill="#ef4444" rx="2"/>
    <circle cx="8" cy="30" r="8" fill="#374151"/>
    <circle cx="8" cy="30" r="5" fill="#6b7280"/>
    <circle cx="25" cy="30" r="6" fill="#374151"/>
    <circle cx="25" cy="30" r="3" fill="#6b7280"/>
    <rect x="5" y="5" width="8" height="8" fill="#3b82f6" opacity="0.7"/>
  </g>
  
  <!-- Clouds -->
  <ellipse cx="100" cy="50" rx="20" ry="12" fill="white" opacity="0.8"/>
  <ellipse cx="115" cy="50" rx="25" ry="15" fill="white" opacity="0.8"/>
  <ellipse cx="130" cy="50" rx="18" ry="10" fill="white" opacity="0.8"/>
  
  <ellipse cx="250" cy="40" rx="15" ry="8" fill="white" opacity="0.6"/>
  <ellipse cx="260" cy="40" rx="20" ry="12" fill="white" opacity="0.6"/>
</svg>
