<?xml version="1.0" standalone="no"?>
<!DOCTYPE svg PUBLIC "-//W3C//DTD SVG 20010904//EN"
 "http://www.w3.org/TR/2001/REC-SVG-20010904/DTD/svg10.dtd">
<svg version="1.0" xmlns="http://www.w3.org/2000/svg"
 width="337.000000pt" height="386.000000pt" viewBox="0 0 337.000000 386.000000"
 preserveAspectRatio="xMidYMid meet">

<g transform="translate(0.000000,386.000000) scale(0.100000,-0.100000)"
fill="#000000" stroke="none">
<path d="M289 3577 c-19 -12 -44 -42 -56 -67 l-22 -45 -2 -1085 c-1 -958 1
-1098 16 -1193 20 -137 46 -221 98 -322 112 -216 331 -339 766 -430 250 -52
310 -76 447 -181 138 -105 143 -106 256 -15 134 107 255 158 468 196 273 49
517 150 644 266 109 100 187 265 222 474 16 90 17 206 15 1199 l-2 1100 -22
40 c-12 22 -37 51 -56 63 l-34 23 -1352 0 -1352 0 -34 -23z m2707 -111 c19
-14 19 -38 22 -1043 2 -719 0 -1062 -8 -1143 -46 -452 -217 -611 -788 -725
-219 -44 -339 -92 -468 -191 -39 -30 -74 -54 -78 -54 -4 0 -41 26 -84 59 -127
97 -234 139 -467 187 -318 65 -509 146 -614 260 -97 106 -151 259 -171 486 -6
79 -9 484 -8 1136 3 990 3 1014 22 1028 30 21 2612 21 2642 0z"/>
<path d="M520 3230 l0 -131 113 3 112 3 0 25 c0 24 -3 25 -67 28 -65 3 -68 4
-68 27 0 24 3 25 60 25 l60 0 0 30 0 30 -60 0 c-47 0 -60 3 -60 15 0 12 14 15
65 15 l65 0 0 30 0 30 -110 0 -110 0 0 -130z"/>
<path d="M903 3233 l2 -128 110 0 110 0 3 28 3 27 -70 0 c-69 0 -71 1 -71 25
0 24 3 25 60 25 l60 0 0 30 0 30 -60 0 c-47 0 -60 3 -60 15 0 12 14 15 65 15
l65 0 0 30 0 30 -109 0 -109 0 1 -127z"/>
<path d="M1323 3350 c-24 -10 -43 -39 -43 -68 0 -27 39 -59 90 -72 59 -16 63
-19 49 -36 -15 -18 -43 -18 -59 1 -7 9 -29 15 -52 15 -36 0 -39 -2 -33 -22 13
-46 51 -68 116 -68 54 0 64 3 90 29 54 54 25 111 -66 132 -30 7 -55 16 -55 21
0 15 32 21 51 10 10 -7 35 -12 54 -12 40 0 45 15 16 51 -14 18 -30 23 -77 26
-32 1 -69 -1 -81 -7z"/>
<path d="M1690 3238 c-25 -67 -46 -125 -48 -130 -2 -4 15 -8 38 -8 33 0 43 4
47 20 4 16 14 20 53 20 39 0 49 -4 53 -20 4 -16 14 -20 47 -20 31 0 41 4 37
13 -3 7 -24 66 -48 130 l-42 117 -47 0 -46 0 -44 -122z m107 -3 c11 -33 10
-35 -13 -35 -25 0 -31 20 -18 54 10 25 20 19 31 -19z"/>
<path d="M2194 3347 c-2 -7 -3 -65 -2 -128 l3 -114 37 -3 37 -3 3 68 3 68 45
-68 c44 -66 46 -67 85 -65 l40 3 2 128 2 127 -40 0 -39 0 0 -72 0 -73 -48 72
c-45 69 -49 73 -85 73 -22 0 -40 -5 -43 -13z"/>
<path d="M2499 3350 c-34 -20 -31 -88 5 -112 21 -14 66 -8 86 12 56 56 -21
141 -91 100z m56 -56 c0 -19 -5 -29 -15 -29 -16 0 -25 28 -16 51 10 25 31 10
31 -22z"/>
<path d="M2716 3345 c-3 -9 -21 -25 -41 -36 -27 -16 -35 -27 -35 -50 0 -34 1
-34 40 -14 l29 15 3 -77 3 -78 38 -3 37 -3 0 130 0 131 -34 0 c-21 0 -36 -6
-40 -15z"/>
<path d="M780 3135 c0 -34 1 -35 40 -35 39 0 40 1 40 35 0 34 -1 35 -40 35
-39 0 -40 -1 -40 -35z"/>
<path d="M1160 3135 c0 -34 1 -35 40 -35 39 0 40 1 40 35 0 34 -1 35 -40 35
-39 0 -40 -1 -40 -35z"/>
<path d="M1540 3135 c0 -34 1 -35 40 -35 39 0 40 1 40 35 0 34 -1 35 -40 35
-39 0 -40 -1 -40 -35z"/>
<path d="M1950 3135 c0 -34 1 -35 40 -35 39 0 40 1 40 35 0 34 -1 35 -40 35
-39 0 -40 -1 -40 -35z"/>
<path d="M475 2995 c-10 -75 -1 -152 30 -274 32 -125 31 -138 -1 -73 -14 29
-42 65 -62 82 -40 33 -50 33 -32 0 6 -11 18 -55 26 -97 8 -44 26 -96 42 -122
61 -101 62 -103 61 -181 l-1 -75 -13 67 c-16 80 -44 146 -74 172 -25 23 -25
27 -12 -111 7 -72 17 -109 47 -175 30 -67 38 -97 41 -158 l3 -75 -18 65 c-22
76 -69 185 -88 200 -10 9 -12 -7 -7 -87 6 -130 23 -186 78 -258 43 -57 56 -87
70 -165 5 -28 -2 -21 -34 39 -37 69 -109 157 -119 146 -8 -8 40 -189 60 -225
10 -19 37 -48 60 -65 54 -40 87 -84 104 -141 8 -26 12 -46 10 -43 -2 2 -25 31
-51 64 -70 91 -179 157 -135 83 10 -18 28 -57 39 -86 30 -77 57 -108 115 -132
28 -12 64 -34 79 -48 26 -25 77 -102 77 -117 0 -4 -23 16 -52 44 -50 49 -92
75 -149 91 -44 13 -37 -8 31 -100 64 -85 93 -105 160 -116 23 -4 57 -17 76
-30 48 -33 59 -30 35 10 -16 26 -21 50 -21 107 0 68 -39 292 -54 306 -3 3 -13
-11 -22 -32 -16 -39 -16 -167 1 -225 l7 -25 -21 25 c-38 46 -45 95 -28 190 11
60 13 99 7 135 -5 28 -9 72 -9 98 -1 56 -11 54 -43 -6 -18 -34 -22 -59 -23
-130 l0 -89 -17 39 c-23 51 -22 102 3 165 17 40 23 82 27 171 3 80 1 117 -6
117 -21 0 -63 -90 -76 -162 l-13 -73 -7 50 c-7 55 -1 82 38 166 17 37 30 89
37 145 5 49 14 101 19 117 5 15 6 27 1 27 -16 0 -61 -57 -82 -104 -12 -28 -25
-73 -30 -100 -7 -44 -7 -40 -6 34 2 82 4 89 44 150 46 72 58 111 68 215 3 39
9 78 11 88 3 9 1 17 -5 17 -14 0 -68 -103 -97 -185 l-25 -70 6 65 c5 44 19 93
45 150 41 90 46 122 42 265 -3 75 -4 79 -17 55 -26 -44 -55 -153 -63 -235 -7
-65 -8 -45 -8 105 l0 185 -36 98 -36 99 -7 -57z m122 -1307 c-3 -8 -6 -5 -6 6
-1 11 2 17 5 13 3 -3 4 -12 1 -19z"/>
<path d="M2853 3008 c-6 -23 -21 -70 -34 -103 -22 -55 -24 -74 -23 -240 1
-143 -1 -163 -7 -99 -8 89 -30 171 -59 224 l-19 35 -1 -130 c0 -128 0 -131 35
-202 39 -81 55 -139 54 -198 l-1 -40 -10 48 c-12 55 -88 209 -108 215 -8 3
-11 -1 -7 -11 3 -8 9 -48 12 -88 10 -107 21 -144 68 -218 38 -60 42 -72 44
-141 l3 -75 -14 55 c-18 77 -30 103 -66 144 -34 38 -57 49 -41 18 6 -10 14
-63 20 -116 7 -69 17 -112 34 -144 41 -79 50 -118 41 -180 l-8 -57 -8 65 c-8
65 -53 170 -74 177 -21 7 -9 -213 15 -281 24 -67 26 -107 10 -157 -20 -58 -24
-51 -24 39 -1 70 -5 96 -24 135 -12 26 -26 47 -29 47 -16 0 -21 -240 -8 -327
9 -57 -6 -115 -44 -163 l-19 -25 15 50 c22 72 22 181 -1 225 -17 34 -18 34
-26 11 -20 -53 -49 -224 -49 -289 0 -54 -5 -79 -21 -107 -27 -45 -19 -55 20
-22 17 14 60 32 99 42 42 10 78 25 90 38 40 43 131 171 126 178 -2 4 -17 4
-32 0 -53 -16 -97 -43 -151 -95 -52 -50 -53 -50 -36 -16 33 66 65 99 133 135
73 39 95 65 138 167 14 34 31 69 36 76 7 8 7 12 -1 12 -37 0 -121 -74 -176
-155 -32 -46 -28 -23 10 61 16 37 38 63 77 93 33 24 62 56 72 79 20 44 65 222
56 222 -18 0 -86 -87 -121 -156 -39 -78 -40 -78 -33 -34 8 57 36 123 69 162
49 58 66 105 75 211 12 136 12 150 -1 141 -16 -10 -65 -121 -89 -201 l-20 -68
4 75 c4 58 13 94 41 158 28 65 39 104 46 180 5 53 12 103 14 110 9 25 -15 11
-42 -25 -17 -22 -37 -70 -50 -122 l-23 -86 3 75 c2 69 6 82 44 145 29 48 48
96 61 155 11 47 23 94 27 105 8 18 5 17 -26 -6 -19 -14 -49 -54 -66 -88 -39
-75 -41 -66 -7 59 27 102 42 279 27 318 -8 22 -10 21 -20 -20z"/>
<path d="M1687 2844 c-160 -29 -296 -86 -414 -176 -121 -91 -176 -170 -177
-255 -1 -44 3 -56 29 -83 16 -17 46 -36 67 -42 21 -6 38 -14 37 -17 0 -3 -45
-27 -99 -53 -268 -130 -391 -371 -254 -500 79 -74 183 -89 439 -64 87 8 160
14 161 13 2 -2 -67 -74 -323 -339 -117 -120 -126 -144 -55 -141 84 4 123 37
377 318 174 194 156 181 266 189 52 4 118 9 146 13 l53 6 -20 -59 c-31 -89
-43 -184 -30 -233 12 -44 50 -81 85 -81 48 0 144 60 211 133 107 117 264 368
250 402 -14 37 -43 13 -115 -96 -122 -184 -205 -278 -227 -256 -30 30 157 503
370 936 36 74 66 141 66 149 0 22 -94 6 -152 -25 -27 -15 -85 -65 -130 -112
-117 -124 -467 -490 -574 -600 l-91 -94 -209 -1 c-232 -1 -251 3 -295 66 -29
40 -29 109 -1 164 67 127 220 216 442 254 75 13 120 34 120 56 0 22 -49 36
-102 29 -67 -10 -151 10 -188 45 -103 97 62 310 279 359 22 5 42 6 45 4 3 -3
-5 -23 -17 -44 -19 -34 -20 -41 -7 -49 17 -12 73 -4 110 15 40 21 88 75 101
113 11 32 10 37 -11 54 -26 21 -56 21 -163 2z m597 -461 c-20 -31 -142 -258
-244 -455 l-65 -126 -90 -7 c-49 -4 -103 -5 -119 -3 l-30 3 55 59 c30 33 106
117 169 186 63 69 158 172 210 229 52 57 101 112 108 123 21 29 26 21 6 -9z"/>
<path d="M2603 1023 c-40 -18 -73 -38 -73 -44 0 -8 68 -166 77 -178 3 -4 143
57 156 68 4 4 1 15 -6 25 -12 16 -15 16 -57 -3 -24 -11 -48 -17 -52 -15 -19
12 -5 32 32 49 43 19 45 22 30 45 -8 12 -14 12 -45 -3 -43 -21 -55 -21 -55 -3
0 8 20 22 44 31 35 13 43 21 39 36 -3 11 -8 21 -12 23 -3 2 -39 -12 -78 -31z"/>
<path d="M662 1028 c-24 -24 -14 -67 23 -101 40 -37 46 -60 13 -55 -15 2 -24
11 -26 25 -2 13 -14 25 -33 32 l-30 10 3 -37 c3 -31 9 -40 43 -59 52 -29 80
-29 110 2 34 33 31 51 -15 97 -43 43 -49 58 -25 58 9 0 20 -11 24 -24 10 -25
47 -41 57 -24 3 5 3 19 0 32 -10 41 -115 73 -144 44z"/>
<path d="M2402 948 c-74 -28 -82 -33 -76 -52 9 -29 9 -30 42 -18 l30 10 25
-66 c22 -62 26 -67 52 -65 15 1 30 4 33 7 2 3 -7 37 -22 76 l-26 72 30 11 c19
7 28 17 25 25 -3 8 -5 18 -5 23 0 14 -19 10 -108 -23z"/>
<path d="M872 908 c-22 -24 -54 -60 -72 -80 l-32 -38 28 -10 c20 -8 34 -8 49
0 28 15 75 -3 75 -29 0 -16 24 -30 53 -31 4 0 7 47 7 105 0 104 0 106 -26 115
-37 15 -39 14 -82 -32z m46 -73 c-2 -9 -8 -12 -16 -6 -12 7 -12 12 0 30 10 17
14 18 16 6 2 -8 2 -22 0 -30z"/>
<path d="M2263 900 c-13 -5 -23 -11 -23 -12 0 -2 7 -25 15 -52 l15 -49 -23 19
c-12 10 -34 29 -49 42 -21 19 -33 23 -57 17 -17 -4 -31 -9 -31 -13 0 -3 12
-48 26 -99 27 -94 38 -106 73 -84 12 8 13 16 2 51 -7 23 -11 44 -9 45 2 2 25
-14 50 -36 27 -23 53 -37 62 -34 9 3 22 7 30 9 11 4 8 23 -14 102 -15 54 -31
99 -36 100 -5 2 -19 -1 -31 -6z"/>
<path d="M1067 893 c-7 -10 -57 -187 -54 -189 1 -2 14 -5 29 -9 26 -7 28 -4
39 39 6 25 14 46 18 46 3 0 15 -26 26 -57 16 -46 25 -58 47 -64 26 -7 28 -4
42 44 33 118 37 140 28 149 -19 19 -46 3 -57 -34 -15 -55 -21 -54 -40 4 -10
29 -20 56 -24 59 -11 12 -49 20 -54 12z"/>
<path d="M1990 832 c-41 -8 -76 -15 -77 -16 -2 -2 36 -198 39 -201 2 -2 40 4
86 13 76 15 82 18 82 40 0 25 -4 26 -104 9 -6 -1 -11 5 -13 15 -3 12 5 18 29
23 62 12 66 15 61 36 -5 17 -11 19 -54 13 -40 -5 -49 -4 -49 8 0 11 15 17 50
22 28 4 50 11 50 16 0 15 -12 40 -19 39 -3 -1 -40 -8 -81 -17z"/>
<path d="M1387 723 c13 -54 27 -101 31 -104 4 -4 19 -9 34 -13 25 -6 29 -1 72
81 25 49 46 94 46 101 0 7 -12 12 -28 12 -25 0 -30 -6 -46 -49 -33 -92 -41
-93 -57 -10 -14 72 -15 74 -46 77 l-31 3 25 -98z"/>
<path d="M1747 795 c-48 -27 -62 -102 -30 -156 43 -73 183 -53 183 25 0 23
-46 20 -70 -4 -17 -17 -24 -18 -41 -10 -16 9 -19 19 -17 52 4 50 28 70 55 46
15 -13 23 -14 45 -5 27 12 27 12 9 36 -23 30 -93 38 -134 16z"/>
<path d="M1600 758 c0 -25 -3 -73 -6 -107 l-7 -61 36 0 36 0 3 98 c2 53 3 98
2 99 0 2 -15 6 -32 9 l-32 7 0 -45z"/>
</g>
</svg>
